<?xml version="1.0" encoding="UTF-8"?>
<svg id="Layer_1" data-name="Layer 1" xmlns="http://www.w3.org/2000/svg" viewBox="0 0 93.85 78.39">
  <g>
    <path d="M53.09,63.42c-3.21,0-6.3-.53-9.17-1.51l-.29,1.13-8.97,1.75c1.53.95,3.13,1.78,4.8,2.48,4.32,1.83,8.91,2.75,13.63,2.75s9.31-.93,13.63-2.75c1.6-.67,3.13-1.46,4.59-2.36l-4.42-5.07c-4.09,2.28-8.79,3.58-13.81,3.58Z" style="fill: #bc99ff; stroke-width: 0px;"/>
    <path d="M85.35,21.37c-1.76-4.17-4.29-7.91-7.5-11.13-3.21-3.21-6.96-5.74-11.13-7.5-4.08-1.73-8.4-2.65-12.85-2.74v6.61c15.33.42,27.63,12.97,27.63,28.4,0,6.32-2.06,12.16-5.56,16.88l4.42,5.08c2.04-2.53,3.71-5.31,4.98-8.32,1.83-4.32,2.75-8.91,2.75-13.63s-.93-9.31-2.75-13.63Z" style="fill: #bc99ff; stroke-width: 0px;"/>
    <circle cx="89.93" cy="56.96" r="3.92" style="fill: #bc99ff; stroke-width: 0px;"/>
    <path d="M50.66,6.7V.08c-3.87.26-7.62,1.16-11.2,2.67-4.17,1.76-7.91,4.29-11.13,7.5-2.53,2.53-4.63,5.4-6.28,8.54h7.68s.02,0,.04,0c4.7-6.74,12.24-11.35,20.89-12.08Z" style="fill: #bc99ff; stroke-width: 0px;"/>
    <path d="M20.83,48.64c1.76,4.17,4.29,7.91,7.5,11.13.91.91,1.86,1.76,2.85,2.55l1.83-7.22c-2.34-2.34-4.27-5.08-5.68-8.11h-7.15c.2.55.42,1.1.65,1.65Z" style="fill: #bc99ff; stroke-width: 0px;"/>
    <polygon points="49.17 33.81 51.03 33.72 49.17 33.8 49.17 33.81" style="fill: #bc99ff; stroke-width: 0px;"/>
    <path d="M62.58,37.91c2.42-.88,4.46-1.99,6.12-3.34,1.79-1.45,3.11-3.11,3.96-4.98.85-1.87,1.23-3.85,1.13-5.95-.09-1.87-.54-3.52-1.35-4.95-.81-1.43-1.92-2.6-3.33-3.52-1.41-.92-3.12-1.6-5.11-2.02-2-.43-4.21-.58-6.63-.47l-12.83.62-2.69,11.54,9.54-.41,1.28-5.43,3.94-.19c1.25-.06,2.31.03,3.2.26.89.23,1.62.59,2.2,1.08.58.49,1.01,1.07,1.3,1.76.29.69.45,1.46.49,2.31.05,1.05-.09,2.11-.43,3.18-.34,1.07-.92,2.05-1.76,2.94-.83.89-1.94,1.64-3.31,2.25-1.31.58-2.91.92-4.79,1.04v.02s-2.47.11-2.47.11l-1.86.09h0s-9.52.4-9.52.4l-.83,3.55-6.45,25.51,10.13-1.98,5.4-21.33,3.67-.18,21.12,24.24,11.95-.36.25-.15-22.31-25.61Z" style="fill: #bc99ff; stroke-width: 0px;"/>
    <rect x="10.38" y="19.81" width="27.73" height="3.13" rx="1.57" ry="1.57" style="fill: #bc99ff; stroke-width: 0px;"/>
    <rect x="0" y="25.98" width="53.35" height="6.02" rx="3.01" ry="3.01" style="fill: #bc99ff; stroke-width: 0px;"/>
    <rect x="7.83" y="35.07" width="26.29" height="3.08" rx="1.54" ry="1.54" style="fill: #bc99ff; stroke-width: 0px;"/>
    <rect x="11.2" y="42.68" width="21.81" height="3.09" rx="1.55" ry="1.55" style="fill: #bc99ff; stroke-width: 0px;"/>
  </g>
  <text transform="translate(71.31 74.92)" style="fill: #bc99ff; font-family: MyriadConceptRoman-Semibold, &apos;Myriad Variable Concept&apos;; font-size: 13.88px; font-variation-settings: &apos;wght&apos; 600, &apos;wdth&apos; 100; font-weight: 600;"><tspan x="0" y="0" style="letter-spacing: 0em;">A</tspan><tspan x="8.76" y="0">i</tspan></text>
</svg>