<?xml version="1.0" encoding="UTF-8"?>
<svg id="Layer_1" data-name="Layer 1" xmlns="http://www.w3.org/2000/svg" xmlns:xlink="http://www.w3.org/1999/xlink" viewBox="0 0 93.85 78.39">
  <defs>
    <linearGradient id="linear-gradient" x1="39.74" y1="66.57" x2="65.83" y2="66.57" gradientUnits="userSpaceOnUse">
      <stop offset=".39" stop-color="#4f70e5"/>
      <stop offset=".67" stop-color="#7936cc"/>
    </linearGradient>
    <linearGradient id="linear-gradient-2" x1="61.79" y1="12.21" x2="94.53" y2="62.85" xlink:href="#linear-gradient"/>
    <linearGradient id="linear-gradient-3" x1="52.57" y1="4.44" x2="26.49" y2="20.3" xlink:href="#linear-gradient"/>
    <linearGradient id="linear-gradient-4" x1="70.28" y1="80.59" x2="7.36" y2="43.25" xlink:href="#linear-gradient"/>
    <linearGradient id="linear-gradient-5" x1="35.89" y1="23.26" x2="72.21" y2="68.53" xlink:href="#linear-gradient"/>
    <linearGradient id="linear-gradient-6" x1="11.27" y1="25.01" x2="41" y2="25.01" gradientUnits="userSpaceOnUse">
      <stop offset=".33" stop-color="#4f70e5"/>
      <stop offset=".61" stop-color="#4f70e5"/>
    </linearGradient>
    <linearGradient id="linear-gradient-7" x1=".58" y1="32.28" x2="57.77" y2="32.28" xlink:href="#linear-gradient-6"/>
    <linearGradient id="linear-gradient-8" x1="8.89" y1="39.55" x2="37.06" y2="39.55" xlink:href="#linear-gradient-6"/>
    <linearGradient id="linear-gradient-9" x1="12.24" y1="46.82" x2="35.61" y2="46.82" xlink:href="#linear-gradient-6"/>
  </defs>
  <g>
    <path d="M52.88,65.13c-3.06,0-6.01-.51-8.75-1.45l-.27,1.08-8.56,1.67c1.46.9,2.99,1.7,4.58,2.37,4.12,1.74,8.5,2.63,13.01,2.63s8.88-.88,13.01-2.63c1.52-.64,2.98-1.39,4.38-2.25l-4.22-4.84c-3.9,2.17-8.39,3.41-13.17,3.41Z" style="fill: url(#linear-gradient); stroke-width: 0px;"/>
    <path d="M83.67,25.01c-1.68-3.98-4.09-7.55-7.16-10.62-3.07-3.07-6.64-5.47-10.62-7.16-3.89-1.65-8.02-2.53-12.26-2.62v6.31c14.63.4,26.36,12.38,26.36,27.1,0,6.03-1.97,11.6-5.3,16.1l4.22,4.85c1.95-2.41,3.54-5.07,4.75-7.94,1.74-4.12,2.63-8.5,2.63-13.01s-.88-8.88-2.63-13.01Z" style="fill: url(#linear-gradient-2); stroke-width: 0px;"/>
    <path d="M50.56,11.01v-6.32c-3.69.25-7.27,1.1-10.69,2.55-3.98,1.68-7.55,4.09-10.62,7.16-2.42,2.42-4.42,5.15-5.99,8.15h7.32s.02,0,.03,0c4.48-6.43,11.68-10.83,19.94-11.53Z" style="fill: url(#linear-gradient-3); stroke-width: 0px;"/>
    <path d="M22.1,51.03c1.68,3.98,4.09,7.55,7.16,10.62.87.87,1.77,1.68,2.72,2.44l1.74-6.89c-2.23-2.23-4.07-4.84-5.42-7.74h-6.82c.19.53.4,1.05.62,1.57Z" style="fill: url(#linear-gradient-4); stroke-width: 0px;"/>
    <polygon points="49.14 36.88 50.91 36.79 49.14 36.87 49.14 36.88" style="fill: none; stroke-width: 0px;"/>
    <path d="M61.94,40.79c2.31-.84,4.25-1.9,5.84-3.18,1.7-1.38,2.96-2.97,3.78-4.75.81-1.78,1.17-3.68,1.08-5.68-.09-1.79-.52-3.36-1.29-4.72-.77-1.36-1.84-2.48-3.18-3.36-1.35-.88-2.97-1.52-4.88-1.93-1.9-.41-4.01-.56-6.33-.45l-12.24.59-2.57,11.01,9.1-.39,1.22-5.19,3.76-.18c1.19-.06,2.21.02,3.06.25.85.22,1.55.56,2.1,1.03.55.46.97,1.02,1.24,1.68.27.66.43,1.39.47,2.2.05,1-.09,2.01-.41,3.03-.32,1.02-.88,1.95-1.68,2.81-.8.85-1.85,1.57-3.16,2.14-1.25.55-2.78.88-4.57.99v.02s-2.36.1-2.36.1l-1.77.09h0s-9.08.38-9.08.38l-.79,3.39-6.16,24.34,9.67-1.89,5.15-20.36,3.5-.17,20.15,23.13,11.41-.34.24-.14-21.29-24.44Z" style="fill: url(#linear-gradient-5); stroke-width: 0px;"/>
    <rect x="12.13" y="23.52" width="26.46" height="2.99" rx="1.49" ry="1.49" style="fill: url(#linear-gradient-6); stroke-width: 0px;"/>
    <rect x="2.22" y="29.41" width="50.91" height="5.74" rx="2.87" ry="2.87" style="fill: url(#linear-gradient-7); stroke-width: 0px;"/>
    <rect x="9.69" y="38.08" width="25.09" height="2.94" rx="1.47" ry="1.47" style="fill: url(#linear-gradient-8); stroke-width: 0px;"/>
    <rect x="12.91" y="45.34" width="20.81" height="2.95" rx="1.48" ry="1.48" style="fill: url(#linear-gradient-9); stroke-width: 0px;"/>
  </g>
  <g>
    <path d="M79.63,74.39h-1.59l-.63-1.64h-2.89l-.6,1.64h-1.55l2.81-7.22h1.54l2.89,7.22ZM76.95,71.53l-.99-2.68-.98,2.68h1.97Z" style="fill: #fff; stroke-width: 0px;"/>
    <rect x="80.4" y="69.16" width="1.38" height="5.23" style="fill: #fff; stroke-width: 0px;"/>
    <circle cx="81.09" cy="67.87" r=".7" style="fill: #fff; stroke-width: 0px;"/>
  </g>
</svg>